<?xml version="1.0" encoding="utf-8"?>
<!-- Generator: Adobe Illustrator 26.3.1, SVG Export Plug-In . SVG Version: 6.00 Build 0)  -->
<svg version="1.1" xmlns="http://www.w3.org/2000/svg" xmlns:xlink="http://www.w3.org/1999/xlink" x="0px" y="0px" width="15px"
	 height="14.258px" viewBox="0 0 15 14.258" style="enable-background:new 0 0 15 14.258;" xml:space="preserve">
<g id="Layer_2">
</g>
<g id="Layer_1">
	<g>
		<polygon points="6.838,9.257 12.924,5.684 8.162,5.001 2.076,8.574 		"/>
		<path d="M1.206,8.752l-0.426,2.97l11.879,1.703l0.426-2.97L1.206,8.752z M2.902,11.016l-0.99-0.142l0.142-0.99l0.99,0.142
			L2.902,11.016z M5.872,11.442L4.882,11.3l0.142-0.99l0.99,0.142L5.872,11.442z M8.841,11.867l-0.99-0.142l0.142-0.99l0.99,0.142
			L8.841,11.867z M11.811,12.293l-0.99-0.142l0.142-0.99l0.99,0.142L11.811,12.293z"/>
		<path d="M2.341,0.833l-0.426,2.97l11.879,1.703l0.426-2.97L2.341,0.833z M4.037,3.097l-0.99-0.142l0.142-0.99l0.99,0.142
			L4.037,3.097z M7.007,3.523l-0.99-0.142l0.142-0.99l0.99,0.142L7.007,3.523z M9.976,3.948l-0.99-0.142l0.142-0.99l0.99,0.142
			L9.976,3.948z M12.946,4.374l-0.99-0.142l0.142-0.99l0.99,0.142L12.946,4.374z"/>
	</g>
</g>
</svg>
